<svg width="33.000000" height="28.543091" viewBox="0 0 33 28.5431" fill="none" xmlns="http://www.w3.org/2000/svg" xmlns:xlink="http://www.w3.org/1999/xlink">
	<desc>
			Created with Pixso.
	</desc>
	<defs/>
	<rect id="Frame 47" rx="0.000000" width="31.999939" height="27.543091" transform="translate(0.500000 0.500000)" fill="#FFFFFF" fill-opacity="0"/>
	<path id="Vector" d="M16.5 28.54C16.03 28.54 15.57 28.37 15.22 28.07C13.89 26.94 12.6 25.87 11.47 24.93L11.46 24.93C8.14 22.18 5.27 19.8 3.27 17.45C1.04 14.83 0 12.35 0 9.64C0 7 0.92 4.57 2.61 2.79C4.32 0.99 6.67 0 9.21 0C11.12 0 12.86 0.58 14.4 1.74C15.17 2.32 15.88 3.03 16.5 3.86C17.11 3.03 17.82 2.32 18.59 1.74C20.13 0.58 21.87 0 23.78 0C26.32 0 28.67 0.99 30.38 2.79C32.07 4.57 33 7 33 9.64C33 12.35 31.96 14.83 29.72 17.45C27.72 19.8 24.85 22.17 21.53 24.93C20.39 25.87 19.11 26.94 17.77 28.07C17.42 28.37 16.96 28.54 16.5 28.54ZM9.21 1.87C7.21 1.87 5.37 2.65 4.03 4.06C2.68 5.49 1.93 7.47 1.93 9.64C1.93 11.92 2.8 13.96 4.76 16.25C6.65 18.47 9.46 20.8 12.71 23.5L12.72 23.5C13.86 24.45 15.15 25.52 16.49 26.66C17.84 25.51 19.14 24.44 20.28 23.5C23.53 20.8 26.34 18.47 28.23 16.25C30.19 13.96 31.06 11.92 31.06 9.64C31.06 7.47 30.31 5.49 28.96 4.06C27.62 2.65 25.78 1.87 23.78 1.87C22.31 1.87 20.96 2.33 19.77 3.22C18.71 4.02 17.98 5.03 17.54 5.73C17.32 6.09 16.93 6.31 16.5 6.31C16.06 6.31 15.67 6.09 15.45 5.73C15.01 5.03 14.28 4.02 13.22 3.22C12.03 2.33 10.68 1.87 9.21 1.87Z" fill="#956D84" fill-opacity="1.000000" fill-rule="nonzero"/>
</svg>
