<svg width="33.000000" height="29.359375" viewBox="0 0 33 29.3594" fill="none" xmlns="http://www.w3.org/2000/svg" xmlns:xlink="http://www.w3.org/1999/xlink">
	<desc>
			Created with Pixso.
	</desc>
	<defs/>
	<path id="Vector" d="M16.5 29.35C16.03 29.35 15.57 29.18 15.22 28.88C13.89 27.71 12.6 26.61 11.47 25.65L11.46 25.64C8.14 22.81 5.27 20.36 3.27 17.95C1.04 15.26 0 12.7 0 9.91C0 7.2 0.92 4.7 2.61 2.87C4.32 1.02 6.67 0 9.21 0C11.12 0 12.86 0.6 14.4 1.78C15.17 2.38 15.88 3.12 16.5 3.97C17.11 3.12 17.82 2.38 18.59 1.78C20.13 0.6 21.87 0 23.78 0C26.32 0 28.67 1.02 30.38 2.87C32.07 4.7 33 7.2 33 9.91C33 12.7 31.96 15.26 29.72 17.95C27.72 20.36 24.85 22.81 21.53 25.64C20.39 26.61 19.11 27.71 17.77 28.88C17.42 29.18 16.96 29.35 16.5 29.35ZM8.5 21.35C6.49 21.35 6.83 17.4 5.5 18.85C4.14 20.33 1.5 14.35 2.5 10.35C2.5 12.7 2.8 14.36 4.76 16.72C6.65 19 9.46 21.4 12.71 24.17L12.72 24.18C13.86 25.15 15.15 26.25 16.49 27.42C17.84 26.24 19.14 25.14 20.28 24.17C23.53 21.4 26.34 19 28.23 16.72C30.19 14.36 31.06 12.26 31.06 9.91C31.06 7.69 33.35 13.47 32 12C30.66 10.54 32.38 14.5 30.38 14.5C28.91 14.5 29.42 15.8 28.23 16.72C27.17 17.54 23.93 22.13 23.5 22.85C23.27 23.23 16.93 27.42 16.49 27.42C16.06 27.42 16.22 28.23 16 27.85C16.6 28.88 14.4 24 11.06 25.3C9.87 24.38 9.96 21.35 8.5 21.35Z" fill="#956D84" fill-opacity="1.000000" fill-rule="nonzero"/>
</svg>
